<svg width="73" height="66" viewBox="0 0 73 66" fill="none" xmlns="http://www.w3.org/2000/svg">
<path d="M0.694237 32.9435C0.694237 38.379 5.97634 43.4532 14.304 46.3133C12.641 54.7256 14.006 61.5059 18.565 64.1479C23.2512 66.8634 30.2324 64.9837 36.8586 59.1637C43.3176 64.7488 49.8455 66.9468 54.4003 64.2973C59.0819 61.5739 60.5059 54.3338 58.797 45.6589C67.4707 42.7773 72.3225 38.4505 72.3225 32.9435C72.3225 27.6341 67.0306 23.0407 58.8153 20.1989C60.655 11.1655 59.0961 4.54972 54.3484 1.79861C49.7711 -0.853621 43.1674 1.45807 36.6134 7.18941C29.7951 1.10605 23.2565 -0.751278 18.5134 2.00785C13.9406 4.66763 12.6357 11.5711 14.304 20.1392C6.25753 22.9582 0.694237 27.6553 0.694237 32.9435Z" fill="white"/>
<path d="M57.0753 23.0209C56.4154 22.7926 55.7316 22.5767 55.0275 22.3725C55.1433 21.8979 55.2495 21.4295 55.3439 20.969C56.894 13.4083 55.8805 7.31727 52.4197 5.31185C49.1011 3.38892 43.674 5.39388 38.1928 10.187C37.6657 10.6479 37.1371 11.1359 36.6088 11.6474C36.2568 11.309 35.9053 10.982 35.5548 10.6692C29.8103 5.54406 24.0524 3.38425 20.5949 5.39547C17.2796 7.32398 16.2978 13.0501 17.6931 20.2155C17.8278 20.9076 17.9853 21.6144 18.1634 22.333C17.3485 22.5654 16.5618 22.8132 15.8091 23.0768C9.07432 25.4362 4.7732 29.1339 4.7732 32.9695C4.7732 36.9308 9.39046 40.9041 16.4052 43.3133C16.9588 43.5034 17.5332 43.6832 18.1252 43.8538C17.933 44.631 17.7659 45.3927 17.6256 46.1355C16.2952 53.1765 17.3342 58.7674 20.6407 60.6837C24.056 62.6627 29.7879 60.6285 35.3693 55.7262C35.8104 55.3386 36.2531 54.9277 36.6967 54.4969C37.2715 55.0532 37.8455 55.5796 38.4164 56.0734C43.8226 60.7481 49.1622 62.6358 52.4656 60.7141C55.8776 58.7294 56.9864 52.7235 55.5468 45.4163C55.4369 44.8583 55.3089 44.2881 55.1652 43.7079C55.5678 43.5883 55.9629 43.4648 56.3483 43.3365C63.6408 40.9086 68.3855 36.9837 68.3855 32.9695C68.3855 29.1201 63.9457 25.3974 57.0753 23.0209Z" fill="#53C1DE"/>
<path d="M55.4936 40.7445C55.1458 40.8603 54.7889 40.9721 54.4252 41.0805C53.6201 38.5195 52.5336 35.7963 51.2039 32.9827C52.4728 30.2362 53.5173 27.5478 54.2998 25.0034C54.9506 25.1926 55.5821 25.3922 56.1908 25.6028C62.0773 27.639 65.668 30.6496 65.668 32.9694C65.668 35.4404 61.7902 38.6481 55.4936 40.7445ZM52.881 45.9466C53.5175 49.1777 53.6084 52.0991 53.1868 54.3828C52.8079 56.4348 52.046 57.803 51.1039 58.3509C49.0992 59.5169 44.8121 58.0013 40.1886 54.0034C39.6586 53.5451 39.1247 53.0558 38.5892 52.5379C40.3816 50.5681 42.173 48.2781 43.9214 45.7349C46.9965 45.4607 49.9019 45.0124 52.5366 44.4004C52.6664 44.9264 52.7816 45.4422 52.881 45.9466ZM26.4601 58.1494C24.5014 58.8445 22.9415 58.8644 21.9985 58.3181C19.992 57.1551 19.1578 52.6662 20.2957 46.6447C20.426 45.9551 20.5811 45.2468 20.7599 44.5227C23.3658 45.1017 26.2498 45.5184 29.3324 45.7695C31.0925 48.2581 32.9356 50.5456 34.7931 52.5485C34.3872 52.9421 33.983 53.3169 33.5811 53.6701C31.113 55.8378 28.6397 57.3759 26.4601 58.1494ZM17.2841 40.7294C14.1823 39.6641 11.6207 38.2796 9.86489 36.7687C8.28715 35.4111 7.49059 34.0632 7.49059 32.9694C7.49059 30.6419 10.944 27.6732 16.7036 25.6553C17.4024 25.4105 18.134 25.1797 18.8932 24.963C19.6892 27.5648 20.7334 30.2851 21.9935 33.0359C20.7171 35.8275 19.6581 38.5911 18.8543 41.2234C18.313 41.0671 17.7887 40.9026 17.2841 40.7294ZM20.36 19.6911C19.1645 13.5519 19.9585 8.92081 21.9564 7.7587C24.0845 6.5207 28.7904 8.28582 33.7503 12.7111C34.0674 12.994 34.3857 13.29 34.7049 13.5963C32.8566 15.5905 31.0303 17.8608 29.2858 20.3347C26.2941 20.6133 23.4303 21.0609 20.7973 21.6603C20.6317 20.9912 20.4851 20.3338 20.36 19.6911ZM47.7995 26.4993C47.17 25.4068 46.5238 24.3402 45.8651 23.3027C47.8947 23.5605 49.8393 23.9027 51.6654 24.3215C51.1172 26.0871 50.4338 27.9331 49.6295 29.8256C49.0524 28.7248 48.4421 27.6149 47.7995 26.4993ZM36.6097 15.5478C37.8632 16.9123 39.1184 18.4358 40.3531 20.0887C39.1089 20.0297 37.8493 19.999 36.5794 19.999C35.3214 19.999 34.0711 20.029 32.8346 20.087C34.0705 18.4494 35.3367 16.928 36.6097 15.5478ZM25.3483 26.5182C24.7195 27.6138 24.1205 28.7176 23.5526 29.8235C22.7612 27.9377 22.0842 26.0832 21.5312 24.2926C23.3462 23.8845 25.2816 23.5508 27.2983 23.2979C26.6303 24.345 25.9787 25.4195 25.3483 26.518V26.5182ZM27.3564 42.8357C25.2728 42.6022 23.3082 42.2856 21.4937 41.8888C22.0556 40.0662 22.7475 38.1722 23.5556 36.2457C24.1251 37.3508 24.7264 38.4551 25.359 39.5531H25.3592C26.0035 40.6716 26.6711 41.7673 27.3564 42.8357ZM36.6849 50.5836C35.3969 49.1872 34.1122 47.6426 32.8575 45.9811C34.0755 46.0291 35.3173 46.0537 36.5794 46.0537C37.8759 46.0537 39.1577 46.0243 40.4193 45.9679C39.1806 47.6593 37.9298 49.2063 36.6849 50.5836ZM49.6554 36.1475C50.5056 38.0948 51.2224 39.9789 51.7915 41.7705C49.9471 42.1933 47.9557 42.5338 45.8576 42.7868C46.5179 41.7353 47.1698 40.6503 47.8103 39.5343C48.4583 38.4052 49.0736 37.2744 49.6554 36.1475ZM45.4564 38.1701C44.462 39.9026 43.4412 41.5564 42.4048 43.1176C40.5171 43.2532 38.567 43.323 36.5794 43.323C34.5998 43.323 32.6742 43.2613 30.82 43.1403C29.7418 41.5587 28.6987 39.9 27.7107 38.185H27.7109C26.7255 36.4748 25.8185 34.75 24.9967 33.035C25.8183 31.3159 26.7229 29.5893 27.7027 27.882L27.7024 27.8824C28.6848 26.1706 29.7187 24.52 30.7869 22.9483C32.6787 22.8046 34.6187 22.7296 36.5792 22.7296H36.5794C38.5488 22.7296 40.4912 22.8051 42.3825 22.9501C43.4344 24.5103 44.4612 26.1556 45.4475 27.8676C46.4449 29.5988 47.3611 31.314 48.1898 32.9962C47.3636 34.7072 46.4494 36.4397 45.4564 38.1701ZM51.0623 7.67746C53.1924 8.91182 54.0208 13.89 52.6825 20.4179C52.5971 20.8344 52.501 21.2587 52.3966 21.6886C49.7574 21.0768 46.8916 20.6214 43.8911 20.3386C42.1432 17.8374 40.3319 15.5636 38.5138 13.5951C39.0026 13.1226 39.4907 12.672 39.9768 12.2468C44.6731 8.14007 49.0624 6.51865 51.0623 7.67746Z" fill="white"/>
<path d="M36.5794 27.2617C39.7165 27.2617 42.2597 29.8171 42.2597 32.9695C42.2597 36.1218 39.7165 38.6773 36.5794 38.6773C33.4422 38.6773 30.899 36.1218 30.899 32.9695C30.899 29.8171 33.4422 27.2617 36.5794 27.2617Z" fill="#53C1DE"/>
</svg>
