<svg width="161" height="46" viewBox="0 0 161 46" fill="none" xmlns="http://www.w3.org/2000/svg">
<path fill-rule="evenodd" clip-rule="evenodd" d="M149.153 19.0816C149.009 19.1101 148.864 19.4234 148.864 19.5942C148.836 20.7329 148.807 23.751 148.807 25.8008C148.807 25.8578 148.893 25.9715 148.98 25.9715C149.413 26 150.452 26.0285 151.347 26.0285C152.588 26.0285 153.31 25.8578 153.714 25.687C154.753 25.1745 155.244 24.064 155.244 22.8397C155.244 20.0782 153.281 19.0246 150.365 19.0246C150.163 18.9964 149.586 18.9964 149.153 19.0816ZM156.601 31.8081C156.601 28.9896 154.493 27.4235 150.683 27.4235C150.51 27.4235 149.297 27.395 149.009 27.452C148.922 27.4805 148.807 27.5376 148.807 27.6231C148.807 29.6443 148.778 32.8617 148.864 34.1142C148.922 34.6552 149.326 35.4239 149.817 35.6517C150.336 35.9365 151.52 35.9932 152.328 35.9932C154.609 35.9932 156.601 34.7407 156.601 31.8081ZM143.264 17.5159C143.553 17.5159 144.419 17.6011 146.642 17.6011C148.749 17.6011 150.423 17.5444 152.473 17.5444C154.984 17.5444 158.448 18.4269 158.448 22.1279C158.448 23.9502 157.149 25.4023 155.446 26.114C155.359 26.1425 155.359 26.1993 155.446 26.2278C157.87 26.8258 160.007 28.3063 160.007 31.0964C160.007 33.8297 158.275 35.5662 155.763 36.6482C154.233 37.303 152.328 37.5307 150.394 37.5307C148.922 37.5307 144.968 37.36 142.774 37.417C142.543 37.3315 142.976 36.3065 143.178 36.1357C143.697 36.1072 144.101 36.0787 144.65 35.908C145.429 35.7087 145.516 35.481 145.631 34.3137C145.689 33.3172 145.689 29.7866 145.689 27.2813C145.689 23.8362 145.718 21.5017 145.689 20.3629C145.66 19.4804 145.343 19.1957 144.708 19.0246C144.217 18.9394 143.409 18.8254 142.745 18.7401C142.6 18.5976 143.091 17.6296 143.264 17.5159ZM126.608 35.2247C127.301 35.7654 128.658 35.9932 129.87 35.9932C131.429 35.9932 132.988 35.7087 134.489 34.3704C136.019 33.0039 137.087 30.8971 137.087 27.5376C137.087 24.3202 135.846 21.7009 133.306 20.1637C131.862 19.2809 130.015 18.9109 127.879 18.9109C127.244 18.9109 126.637 18.9394 126.262 19.1101C126.176 19.1671 125.973 19.4234 125.973 19.5657C125.916 20.1352 125.916 24.5195 125.916 27.082C125.916 29.7298 125.916 33.4309 125.973 33.8579C125.973 34.2852 126.175 34.9399 126.608 35.2247ZM120.056 17.5159C120.604 17.5159 122.711 17.6011 123.722 17.6011C125.541 17.6011 126.839 17.5159 130.274 17.5159C133.161 17.5159 135.586 18.2846 137.318 19.7364C139.425 21.5302 140.522 24.0072 140.522 27.025C140.522 31.3241 138.53 33.8012 136.538 35.2247C134.547 36.6767 131.949 37.5307 128.254 37.5307C126.291 37.5307 122.914 37.4737 120.114 37.4452H120.085C119.94 37.1892 120.316 36.1927 120.547 36.1642C121.297 36.0787 121.499 36.0502 121.875 35.908C122.481 35.6802 122.596 35.3669 122.683 34.3137C122.769 32.3491 122.74 29.9861 122.74 27.3098C122.74 25.4023 122.769 21.6724 122.711 20.4767C122.625 19.4804 122.192 19.2242 121.326 19.0531C120.893 18.9679 120.316 18.8539 119.508 18.7686C119.392 18.5691 119.912 17.6866 120.056 17.5159Z" fill="#8E714E"/>
<path fill-rule="evenodd" clip-rule="evenodd" d="M85.128 36.3348C84.4064 36.2493 83.8868 36.1356 83.2515 35.8508C83.1651 35.7938 83.0206 35.5093 83.0206 35.3953C82.9628 34.3988 82.9628 31.5517 82.9628 29.6442C82.9628 28.1067 82.7033 26.7687 82.0392 25.8291C81.2597 24.7471 80.134 24.1208 78.6907 24.1208C77.4205 24.1208 75.7174 24.9751 74.303 26.1709C74.2741 26.1991 74.0432 26.3987 74.0721 26.0854C74.0721 25.7721 74.1299 25.1459 74.1588 24.7189C74.1877 24.3201 73.9568 24.1208 73.9568 24.1208C73.0329 24.5764 70.435 25.1744 69.4824 25.2596C68.7897 25.4021 68.6165 26.0569 69.3382 26.2846H69.3671C70.1463 26.5124 70.6659 26.7687 71.0699 27.0249C71.3586 27.2527 71.3297 27.5659 71.3297 27.8222C71.3586 29.9575 71.3586 33.2315 71.2722 35.0253C71.2433 35.7371 71.0413 35.9931 70.5217 36.1071L70.5792 36.0786C70.1752 36.1641 69.8576 36.2493 69.3668 36.3063C69.1937 36.4771 69.1937 37.3884 69.3668 37.5876C69.6844 37.5876 71.3586 37.5021 72.7444 37.5021C74.6495 37.5021 75.631 37.5876 76.1217 37.5876C76.3238 37.3599 76.3816 36.5056 76.266 36.3063C75.7174 36.2778 75.3134 36.2211 74.9383 36.1071C74.4186 35.9931 74.2741 35.7371 74.2452 35.1391C74.1877 33.63 74.1877 30.4415 74.1877 28.2777C74.1877 27.6797 74.3608 27.3949 74.534 27.2242C75.1978 26.6549 76.266 26.2561 77.2185 26.2561C78.1422 26.2561 78.7485 26.5409 79.2104 26.9112C79.8453 27.4234 80.0473 28.1637 80.134 28.7047C80.2782 29.929 80.2207 32.349 80.2207 34.4558C80.2207 35.5946 80.134 35.8793 79.7011 36.0216C79.4991 36.1071 78.9794 36.2211 78.3731 36.2778C78.1711 36.4771 78.2289 37.3599 78.3731 37.5591C79.2104 37.5591 80.1918 37.4736 81.6351 37.4736C83.4247 37.4736 84.5795 37.5591 85.0413 37.5591C85.1856 37.3884 85.2434 36.5626 85.1278 36.3348H85.128ZM93.124 25.4591C91.594 25.4591 90.6414 26.6264 90.6414 28.4484C90.6414 30.299 91.4784 32.4343 93.8456 32.4343C94.2496 32.4343 95.0002 32.2635 95.3464 31.865C95.895 31.3525 96.2704 30.3275 96.2704 29.2457C96.2704 26.8827 95.0866 25.4591 93.124 25.4591ZM92.9217 38.0431C92.3445 38.0431 91.9402 38.2139 91.6807 38.3564C90.468 39.1249 89.9198 39.8651 89.9198 40.7479C89.9198 41.5734 90.2371 42.2282 90.9301 42.7977C91.7671 43.5095 92.9217 43.8512 94.3939 43.8512C97.3383 43.8512 98.6373 42.2852 98.6373 40.7479C98.6373 39.6659 98.0888 38.9541 96.9631 38.5556C96.1548 38.2139 94.6826 38.0431 92.9217 38.0431ZM93.124 45.4455C91.363 45.4455 90.0929 45.0752 88.9961 44.2497C87.9279 43.4525 87.4661 42.2567 87.4661 41.4312C87.4661 41.2034 87.5239 40.5769 88.0435 40.0077C88.3609 39.6659 89.0536 39.0111 90.6992 37.9009C90.7567 37.8724 90.7856 37.8439 90.7856 37.7869C90.7856 37.7299 90.7278 37.6729 90.6703 37.6446C89.3134 37.1321 88.9094 36.3063 88.7938 35.8508V35.7938C88.7652 35.6231 88.7074 35.4523 88.9672 35.2813C89.1692 35.1391 89.4579 34.9683 89.7753 34.7691C90.266 34.4843 90.7856 34.171 91.1032 33.9148C91.161 33.8578 91.161 33.801 91.161 33.744C91.161 33.687 91.1032 33.63 91.0454 33.6018C89.025 32.9468 88.0146 31.4662 88.0146 29.2457C88.0146 27.7937 88.6785 26.4839 89.862 25.6584C90.6703 25.0319 92.6908 24.2634 94.0187 24.2634H94.1054C95.462 24.2916 96.2126 24.5764 97.2805 24.9466C97.8579 25.1459 98.4064 25.2311 99.157 25.2311C100.283 25.2311 100.773 24.8896 101.177 24.4911C101.206 24.5479 101.264 24.6904 101.293 25.0604C101.322 25.4306 101.206 25.9714 100.918 26.3701C100.687 26.6831 100.167 26.9112 99.6477 26.9112H99.5032C98.9836 26.8542 98.7527 26.7972 98.7527 26.7972L98.6373 26.8542C98.6084 26.9112 98.6373 26.9679 98.6662 27.0534L98.6951 27.1104C98.7527 27.3667 98.8682 28.1352 98.8682 28.3347C98.8682 30.6692 97.9157 31.694 96.9053 32.4628C95.9239 33.1745 94.7982 33.63 93.528 33.744C93.4991 33.744 93.3838 33.744 93.124 33.7725C92.9795 33.7725 92.7774 33.801 92.7485 33.801H92.7197C92.4887 33.8578 91.9116 34.1425 91.9116 34.6265C91.9116 35.0536 92.1714 35.5661 93.4124 35.6516C93.6722 35.6801 93.932 35.6801 94.2207 35.7086C95.8661 35.8223 97.9157 35.9648 98.8682 36.2778C100.196 36.7618 101.033 37.9291 101.033 39.3244C101.033 41.4312 99.5032 43.3957 96.9631 44.6197C95.7218 45.1607 94.4806 45.4455 93.124 45.4455ZM109.578 25.6014C108.971 25.6014 108.423 25.7436 108.019 26.0284C106.893 26.7116 106.316 28.0784 106.316 30.0712C106.316 33.801 108.221 36.4203 110.934 36.4203C111.743 36.4203 112.378 36.1926 112.926 35.7371C113.763 35.0536 114.196 33.687 114.196 31.7795C114.196 28.0784 112.32 25.6014 109.578 25.6014ZM110.097 37.7869C105.19 37.7869 103.429 34.228 103.429 30.897C103.429 28.5624 104.382 26.7687 106.287 25.4874C107.644 24.6619 109.26 24.2064 110.703 24.2064C114.456 24.2064 117.083 26.8542 117.083 30.6692C117.083 33.26 116.044 35.3098 114.052 36.5626C113.099 37.1888 111.454 37.7869 110.097 37.7869H110.097ZM58.6577 25.6014C58.0514 25.6014 57.5031 25.7436 57.0988 26.0284C55.9731 26.7116 55.3957 28.0784 55.3957 30.0712C55.3957 33.801 57.3008 36.4203 60.0143 36.4203C60.8226 36.4203 61.4576 36.1926 62.0061 35.7371C62.8431 35.0536 63.2763 33.687 63.2763 31.7795C63.2763 28.0784 61.4287 25.6014 58.6577 25.6014ZM59.1773 37.7869C54.27 37.7869 52.5091 34.228 52.5091 30.897C52.5091 28.5624 53.4617 26.7687 55.3668 25.4874C56.7237 24.6619 58.3401 24.2064 59.7834 24.2064C63.5361 24.2064 66.1629 26.8542 66.1629 30.6692C66.1629 33.26 65.1236 35.3098 63.1318 36.5626C62.2081 37.1888 60.5628 37.7869 59.1773 37.7869ZM26.1832 37.5021C26.1254 37.4169 26.0677 37.1606 26.0966 36.8473C26.0966 36.6196 26.1543 36.4771 26.1832 36.4203C26.7893 36.3348 27.1069 36.2493 27.4532 36.1641C28.0306 36.0216 28.2615 35.7086 28.2904 34.9968C28.3771 33.2885 28.3771 30.0427 28.3482 27.7937V27.7367C28.3482 27.4804 28.3482 27.1672 28.0306 26.9394C27.5687 26.6549 27.0202 26.3987 26.2986 26.1991C26.0388 26.1139 25.8656 25.9714 25.8945 25.8006C25.8945 25.6299 26.0677 25.4306 26.4431 25.3736C27.3956 25.2881 29.8779 24.6904 30.8594 24.2634C30.9172 24.3201 31.0039 24.4911 31.0039 24.7189L30.975 25.0319C30.9461 25.3451 30.9172 25.7154 30.9172 26.0854C30.9172 26.1991 31.0328 26.2846 31.1481 26.2846C31.2059 26.2846 31.2637 26.2561 31.3215 26.2276C33.1688 24.8041 34.843 24.2916 35.7089 24.2916C37.1236 24.2916 38.2203 24.9466 39.0576 26.3131C39.1151 26.3987 39.1729 26.4269 39.2596 26.4269C39.3174 26.4269 39.4038 26.3987 39.4327 26.3416C41.1358 25.0604 42.839 24.2916 43.9646 24.2916C46.6492 24.2916 48.237 26.2561 48.237 29.5872C48.237 30.5267 48.237 31.751 48.2081 32.8615C48.2081 33.8578 48.1792 34.7691 48.1792 35.4238C48.1792 35.5661 48.3812 36.0216 48.6988 36.1071C49.1029 36.3063 49.6514 36.3918 50.373 36.5056H50.4019C50.4597 36.7048 50.3442 37.4451 50.2288 37.5876C50.0554 37.5876 49.7956 37.5876 49.5072 37.5591C48.9587 37.5306 48.1792 37.5021 47.3133 37.5021C45.5235 37.5021 44.5999 37.5306 43.7048 37.5876C43.6473 37.3599 43.6184 36.6766 43.7048 36.5056C44.2245 36.4203 44.4843 36.3348 44.8019 36.2493C45.3793 36.0786 45.5235 35.8223 45.5524 35.0821C45.5524 34.5413 45.6677 29.929 45.4946 28.8184C45.3215 27.6797 44.4554 26.3416 42.5502 26.3416C41.8286 26.3416 40.7029 26.6264 39.6058 27.4519C39.5483 27.5089 39.4905 27.6512 39.4905 27.7367V27.7652C39.6058 28.3629 39.6058 29.0465 39.6058 30.0997V31.9502C39.6058 33.2315 39.577 34.4273 39.6058 35.3383C39.6058 35.9648 39.9813 36.1071 40.2989 36.2211C40.472 36.2493 40.5873 36.2778 40.7318 36.3063C40.9916 36.3633 41.2514 36.4203 41.6555 36.5056C41.7133 36.6196 41.7133 36.9896 41.6266 37.3029C41.5977 37.4736 41.5399 37.5591 41.5113 37.5876C40.5298 37.5591 39.5194 37.5306 38.0472 37.5306C37.6143 37.5306 36.8637 37.5591 36.2285 37.5591C35.7089 37.5591 35.2182 37.5876 34.9297 37.5876C34.9008 37.5306 34.843 37.3314 34.843 37.0181C34.843 36.7618 34.9008 36.5626 34.9586 36.5056C35.1028 36.4771 35.2182 36.4488 35.3627 36.4488C35.7089 36.3918 35.9976 36.3348 36.2863 36.2778C36.7771 36.1356 36.9502 35.8793 36.9791 35.2531C37.0658 33.8295 37.1522 29.7582 36.9502 28.7332C36.6039 27.0819 35.6514 26.2561 34.1214 26.2561C33.2266 26.2561 32.1007 26.6831 31.177 27.3667C31.0328 27.4804 30.9172 27.7652 30.9172 28.0214V29.7012C30.9172 31.751 30.9172 34.3136 30.9461 35.4238C30.975 35.7653 31.0903 36.1641 31.7544 36.3063C31.8986 36.3348 32.1296 36.3918 32.4183 36.4203L32.9379 36.5056C32.9957 36.6766 32.9668 37.3599 32.8512 37.5876C32.5625 37.5876 32.2162 37.5591 31.8119 37.5591C31.2059 37.5306 30.4264 37.5021 29.5606 37.5021C28.5502 37.5021 27.8286 37.5306 27.2511 37.5591C26.8471 37.5021 26.5295 37.5021 26.1832 37.5021Z" fill="#442D22"/>
<path fill-rule="evenodd" clip-rule="evenodd" d="M10.9994 44.3354L9.81595 43.9366C9.81595 43.9366 9.96044 37.9863 7.7955 37.5593C6.3522 35.908 8.02642 -32.4788 13.2222 37.3315C13.2222 37.3315 11.4326 38.214 11.115 39.723C10.7685 41.2036 10.9994 44.3354 10.9994 44.3354Z" fill="white"/>
<path fill-rule="evenodd" clip-rule="evenodd" d="M10.9994 44.3354L9.81595 43.9366C9.81595 43.9366 9.96044 37.9863 7.7955 37.5593C6.3522 35.908 8.02642 -32.4788 13.2222 37.3315C13.2222 37.3315 11.4326 38.214 11.115 39.723C10.7685 41.2036 10.9994 44.3354 10.9994 44.3354Z" fill="#A6A385"/>
<path fill-rule="evenodd" clip-rule="evenodd" d="M11.6347 38.584C11.6347 38.584 21.9976 31.8648 19.5728 17.8856C17.2348 7.72163 11.7211 4.39057 11.1151 3.10929C10.4512 2.19828 9.81598 0.604004 9.81598 0.604004L10.2492 28.8753C10.2492 28.9038 9.35415 37.5304 11.6347 38.584Z" fill="white"/>
<path fill-rule="evenodd" clip-rule="evenodd" d="M11.6347 38.584C11.6347 38.584 21.9976 31.8648 19.5728 17.8856C17.2348 7.72163 11.7211 4.39057 11.1151 3.10929C10.4512 2.19828 9.81598 0.604004 9.81598 0.604004L10.2492 28.8753C10.2492 28.9038 9.35415 37.5304 11.6347 38.584Z" fill="#499D4A"/>
<path fill-rule="evenodd" clip-rule="evenodd" d="M9.2099 38.9542C9.2099 38.9542 -0.518033 32.4058 0.0593932 20.8754C0.607651 9.34465 7.47789 3.67905 8.8056 2.65403C9.67174 1.74301 9.70064 1.40125 9.75843 0.490234C10.3645 1.77151 10.2492 19.6511 10.3356 21.7579C10.5954 29.872 9.87376 37.4169 9.2099 38.9542Z" fill="white"/>
<path fill-rule="evenodd" clip-rule="evenodd" d="M9.2099 38.9542C9.2099 38.9542 -0.518033 32.4058 0.0593932 20.8754C0.607651 9.34465 7.47789 3.67905 8.8056 2.65403C9.67174 1.74301 9.70064 1.40125 9.75843 0.490234C10.3645 1.77151 10.2492 19.6511 10.3356 21.7579C10.5954 29.872 9.87376 37.4169 9.2099 38.9542Z" fill="#58AA50"/>
</svg>
