<svg width="105" height="66" viewBox="0 0 105 66" fill="none" xmlns="http://www.w3.org/2000/svg">
<path d="M52.1746 65.3582C51.8221 65.3582 51.4931 65.2624 51.1876 65.0948L48.0622 63.2029C47.5923 62.9394 47.8272 62.8436 47.9682 62.7957C48.6027 62.5802 48.7202 62.5323 49.3782 62.1491C49.4487 62.1012 49.5427 62.1252 49.6132 62.1731L52.0101 63.6339C52.1041 63.6818 52.2216 63.6818 52.2921 63.6339L61.6683 58.1019C61.7623 58.054 61.8093 57.9582 61.8093 57.8385V46.7983C61.8093 46.6786 61.7623 46.5828 61.6683 46.5349L52.2921 41.0268C52.1981 40.9789 52.0806 40.9789 52.0101 41.0268L42.6339 46.5349C42.5399 46.5828 42.4929 46.7025 42.4929 46.7983V57.8385C42.4929 57.9342 42.5399 58.054 42.6339 58.1019L45.1953 59.6106C46.5818 60.3291 47.4513 59.4909 47.4513 58.6527V47.7562C47.4513 47.6125 47.5688 47.4689 47.7332 47.4689H48.9317C49.0727 47.4689 49.2137 47.5886 49.2137 47.7562V58.6527C49.2137 60.5446 48.2032 61.6462 46.4408 61.6462C45.9003 61.6462 45.4773 61.6462 44.2789 61.0475L41.8114 59.6106C41.2005 59.2514 40.8245 58.5808 40.8245 57.8624V46.8223C40.8245 46.1038 41.2005 45.4333 41.8114 45.074L51.1876 39.542C51.7751 39.2067 52.5741 39.2067 53.1616 39.542L62.5378 45.074C63.1487 45.4333 63.5247 46.1038 63.5247 46.8223V57.8624C63.5247 58.5808 63.1487 59.2514 62.5378 59.6106L53.1616 65.1427C52.8561 65.2864 52.5036 65.3582 52.1746 65.3582ZM55.065 57.7666C50.9526 57.7666 50.1067 55.8507 50.1067 54.2223C50.1067 54.0786 50.2242 53.9349 50.3887 53.9349H51.6106C51.7516 53.9349 51.8691 54.0307 51.8691 54.1744C52.0571 55.4436 52.5976 56.0663 55.0885 56.0663C57.0624 56.0663 57.9084 55.6113 57.9084 54.5336C57.9084 53.9109 57.6734 53.4559 54.595 53.1446C52.0336 52.8812 50.4357 52.3064 50.4357 50.2229C50.4357 48.2831 52.0336 47.1336 54.7125 47.1336C57.7204 47.1336 59.2009 48.1873 59.3889 50.4863C59.3889 50.5582 59.3654 50.63 59.3184 50.7019C59.2714 50.7498 59.2009 50.7977 59.1304 50.7977H57.9084C57.7909 50.7977 57.6734 50.7019 57.6499 50.5821C57.3679 49.265 56.6395 48.8339 54.7125 48.8339C52.5506 48.8339 52.2921 49.6003 52.2921 50.175C52.2921 50.8695 52.5976 51.085 55.5115 51.4682C58.4019 51.8514 59.7649 52.4022 59.7649 54.4617C59.7414 56.5692 58.0494 57.7666 55.065 57.7666Z" fill="#539E43"/>
<path d="M23.0826 22.1795C23.0826 21.7484 22.8476 21.3413 22.4716 21.1258L12.5079 15.2824C12.3434 15.1866 12.1554 15.1387 11.9674 15.1147H11.8734C11.6854 15.1147 11.4974 15.1866 11.333 15.2824L1.36928 21.1258C0.993293 21.3413 0.758301 21.7484 0.758301 22.1795L0.7818 37.8895C0.7818 38.1051 0.899296 38.3206 1.08729 38.4164C1.27528 38.5361 1.51028 38.5361 1.67477 38.4164L7.59657 34.9679C7.97256 34.7523 8.20755 34.3452 8.20755 33.9141V26.562C8.20755 26.1309 8.44255 25.7238 8.81853 25.5083L11.333 24.0235C11.5209 23.9038 11.7324 23.8559 11.9439 23.8559C12.1554 23.8559 12.3669 23.9038 12.5314 24.0235L15.0458 25.5083C15.4218 25.7238 15.6568 26.1309 15.6568 26.562V33.9141C15.6568 34.3452 15.8918 34.7523 16.2678 34.9679L22.1896 38.4164C22.3776 38.5361 22.6126 38.5361 22.8006 38.4164C22.9886 38.3206 23.1061 38.1051 23.1061 37.8895L23.0826 22.1795Z" fill="#333333"/>
<path d="M70.974 0.554267C70.786 0.458474 70.551 0.458474 70.3865 0.554267C70.1985 0.674008 70.081 0.865594 70.081 1.08113V16.6475C70.081 16.7912 70.0105 16.9349 69.8695 17.0307C69.7285 17.1025 69.5875 17.1025 69.4465 17.0307L66.9556 15.5698C66.5796 15.3543 66.1332 15.3543 65.7572 15.5698L55.7935 21.4371C55.4175 21.6527 55.1825 22.0598 55.1825 22.4909V34.2016C55.1825 34.6326 55.4175 35.0398 55.7935 35.2553L65.7572 41.1226C66.1332 41.3381 66.5796 41.3381 66.9556 41.1226L76.9193 35.2553C77.2953 35.0398 77.5303 34.6326 77.5303 34.2016V5.00864C77.5303 4.55363 77.2953 4.1465 76.9193 3.93097L70.974 0.554267ZM70.0575 30.3459C70.0575 30.4656 70.0105 30.5614 69.9165 30.6093L66.5091 32.621C66.4151 32.6689 66.2977 32.6689 66.2037 32.621L62.7963 30.6093C62.7023 30.5614 62.6553 30.4417 62.6553 30.3459V26.3226C62.6553 26.2028 62.7023 26.1071 62.7963 26.0592L66.2037 24.0475C66.2977 23.9996 66.4151 23.9996 66.5091 24.0475L69.9165 26.0592C70.0105 26.1071 70.0575 26.2268 70.0575 26.3226V30.3459Z" fill="#333333"/>
<path d="M104.131 26.2267C104.507 26.0112 104.719 25.6041 104.719 25.173V22.3232C104.719 21.8921 104.484 21.485 104.131 21.2694L94.2382 15.4261C93.8622 15.2105 93.4158 15.2105 93.0398 15.4261L83.0761 21.2934C82.7001 21.5089 82.4651 21.916 82.4651 22.3471V34.0578C82.4651 34.4889 82.7001 34.896 83.0761 35.1115L92.9693 40.8591C93.3453 41.0746 93.7917 41.0746 94.1442 40.8591L100.137 37.4585C100.325 37.3627 100.442 37.1471 100.442 36.9316C100.442 36.7161 100.325 36.5005 100.137 36.4047L90.1259 30.5374C89.9379 30.4177 89.8204 30.2261 89.8204 30.0105V26.3465C89.8204 26.1309 89.9379 25.9154 90.1259 25.8196L93.2513 23.9995C93.4392 23.8798 93.6742 23.8798 93.8622 23.9995L96.9876 25.8196C97.1756 25.9393 97.2931 26.1309 97.2931 26.3465V29.2203C97.2931 29.4358 97.4106 29.6513 97.5986 29.7471C97.7866 29.8669 98.0216 29.8669 98.2096 29.7471L104.131 26.2267Z" fill="#333333"/>
<path d="M93.4863 25.6761C93.5568 25.6282 93.6508 25.6282 93.7213 25.6761L95.6247 26.8016C95.6952 26.8495 95.7422 26.9214 95.7422 27.0172V29.2683C95.7422 29.3641 95.6952 29.4359 95.6247 29.4838L93.7213 30.6094C93.6508 30.6573 93.5568 30.6573 93.4863 30.6094L91.5828 29.4838C91.5123 29.4359 91.4653 29.3641 91.4653 29.2683V27.0172C91.4653 26.9214 91.5123 26.8495 91.5828 26.8016L93.4863 25.6761Z" fill="#539E43"/>
<mask id="mask0_15_1923" style="mask-type:alpha" maskUnits="userSpaceOnUse" x="28" y="15" width="23" height="27">
<path d="M39.7435 15.4739C39.3675 15.2584 38.921 15.2584 38.545 15.4739L28.6519 21.2933C28.2759 21.5089 28.0644 21.916 28.0644 22.3471V34.0099C28.0644 34.4409 28.2994 34.848 28.6519 35.0636L38.545 40.883C38.921 41.0985 39.3675 41.0985 39.7435 40.883L49.6367 35.0636C50.0127 34.848 50.2242 34.4409 50.2242 34.0099V22.3471C50.2242 21.916 49.9892 21.5089 49.6367 21.2933L39.7435 15.4739Z" fill="white"/>
</mask>
<g mask="url(#mask0_15_1923)">
<path d="M39.7435 15.4739C39.3675 15.2584 38.921 15.2584 38.545 15.4739L28.6519 21.2933C28.2759 21.5089 28.0644 21.916 28.0644 22.3471V34.0099C28.0644 34.4409 28.2994 34.848 28.6519 35.0636L38.545 40.883C38.921 41.0985 39.3675 41.0985 39.7435 40.883L49.6367 35.0636C50.0127 34.848 50.2242 34.4409 50.2242 34.0099V22.3471C50.2242 21.916 49.9892 21.5089 49.6367 21.2933L39.7435 15.4739Z" fill="url(#paint0_linear_15_1923)"/>
<path d="M49.6602 21.2927L39.72 15.4733C39.626 15.4254 39.5085 15.3775 39.4145 15.3535L28.2759 34.7995C28.3699 34.9192 28.4874 35.015 28.6049 35.0869L38.5451 40.9063C38.827 41.0739 39.156 41.1218 39.4615 41.026L49.9187 21.5322C49.8482 21.4364 49.7542 21.3645 49.6602 21.2927Z" fill="url(#paint1_linear_15_1923)"/>
<path fill-rule="evenodd" clip-rule="evenodd" d="M49.6837 35.0637C49.9657 34.8961 50.1772 34.6087 50.2712 34.2974L39.3675 15.3304C39.0855 15.2825 38.78 15.3064 38.5215 15.4741L28.6519 21.2696L39.297 41.0508C39.438 41.0269 39.6025 40.979 39.7435 40.9071L49.6837 35.0637Z" fill="url(#paint2_linear_15_1923)"/>
<path fill-rule="evenodd" clip-rule="evenodd" d="M49.6837 35.0635L39.767 40.8829C39.626 40.9547 39.485 41.0026 39.3205 41.0266L39.5085 41.3858L50.5062 34.8958V34.7522L50.2242 34.2732C50.1772 34.6085 49.9657 34.8958 49.6837 35.0635Z" fill="url(#paint3_linear_15_1923)"/>
<path fill-rule="evenodd" clip-rule="evenodd" d="M49.6837 35.0635L39.767 40.8829C39.626 40.9547 39.485 41.0026 39.3205 41.0266L39.5085 41.3858L50.5062 34.8958V34.7522L50.2242 34.2732C50.1772 34.6085 49.9657 34.8958 49.6837 35.0635Z" fill="url(#paint4_linear_15_1923)"/>
</g>
<defs>
<linearGradient id="paint0_linear_15_1923" x1="43.1748" y1="19.812" x2="32.036" y2="36.9855" gradientUnits="userSpaceOnUse">
<stop stop-color="#41873F"/>
<stop offset="0.3288" stop-color="#418B3D"/>
<stop offset="0.6352" stop-color="#419637"/>
<stop offset="0.9319" stop-color="#3FA92D"/>
<stop offset="1" stop-color="#3FAE2A"/>
</linearGradient>
<linearGradient id="paint1_linear_15_1923" x1="37.6421" y1="29.5437" x2="65.0318" y2="14.9419" gradientUnits="userSpaceOnUse">
<stop offset="0.1376" stop-color="#41873F"/>
<stop offset="0.4032" stop-color="#54A044"/>
<stop offset="0.7136" stop-color="#66B848"/>
<stop offset="0.9081" stop-color="#6CC04A"/>
</linearGradient>
<linearGradient id="paint2_linear_15_1923" x1="27.703" y1="28.179" x2="50.5953" y2="28.179" gradientUnits="userSpaceOnUse">
<stop offset="0.0919165" stop-color="#6CC04A"/>
<stop offset="0.2864" stop-color="#66B848"/>
<stop offset="0.5968" stop-color="#54A044"/>
<stop offset="0.8624" stop-color="#41873F"/>
</linearGradient>
<linearGradient id="paint3_linear_15_1923" x1="27.703" y1="37.8491" x2="50.5953" y2="37.8491" gradientUnits="userSpaceOnUse">
<stop offset="0.0919165" stop-color="#6CC04A"/>
<stop offset="0.2864" stop-color="#66B848"/>
<stop offset="0.5968" stop-color="#54A044"/>
<stop offset="0.8624" stop-color="#41873F"/>
</linearGradient>
<linearGradient id="paint4_linear_15_1923" x1="53.9304" y1="19.2606" x2="47.9154" y2="50.1886" gradientUnits="userSpaceOnUse">
<stop stop-color="#41873F"/>
<stop offset="0.3288" stop-color="#418B3D"/>
<stop offset="0.6352" stop-color="#419637"/>
<stop offset="0.9319" stop-color="#3FA92D"/>
<stop offset="1" stop-color="#3FAE2A"/>
</linearGradient>
</defs>
</svg>
